# xmcd
#
# Track frame offsets:
#	150
#	16348
#	30728
#	48432
#	64676
#	81208
#	97696
#	118245
#	134022
#	150056
#	166568
#	179364
#	197786
#	221357
#	236539
#	249754
#	266881
#	284398
#
# Disc length: 3998 seconds
#
# Revision: 1
# Processed by: cddbd v1.5.2PL0 Copyright (c) Steve Scherf et al.
# Submitted via: audiograbber 1.83.01
#
DISCID=ea0f9c12
DTITLE=Various Artist - Country Music Messe 2013
DYEAR=2013
DGENRE=Country
TTITLE0=Michael Lonstar - Radio Friendly
TTITLE1=Clutterbillies - The King
TTITLE2=Easy Rider - Wanted Gold
TTITLE3=Barry P. Foley - Ruby´s Cafe
TTITLE4=Gitty - Don´t Let Me Go
TTITLE5=Sachsentramp - Achterbahn
TTITLE6=Jolina Carl - Solange Du Noch Weinen Kannst
TTITLE7=Dean Wolf - Just To See You Smile
TTITLE8=The Pyronix - Cadillac Escapade
TTITLE9=Captain Köpenick - Hard Working Man
TTITLE10=Hermann Lammers-Meyer - Magic In A Song (when your memory comes again)
TTITLE11=Henry Eye and Dean Wolf - Where Has The Time Gone
TTITLE12=Shirley Ann - New Kid In Town
TTITLE13=Levin Langford - Ich will´s nochmal wissen
TTITLE14=The Sunny Bottom Boys - Gotta Go Away
TTITLE15=Mike O´Donoghue - Keine Kohle
TTITLE16=Tex Lee - The Girl Who Plays Lead Guitar For Johnny Cash
TTITLE17=Henry Eye - It´s Raining Beer
EXTD=
EXTT0=
EXTT1=
EXTT2=
EXTT3=
EXTT4=
EXTT5=
EXTT6=
EXTT7=
EXTT8=
EXTT9=
EXTT10=
EXTT11=
EXTT12=
EXTT13=
EXTT14=
EXTT15=
EXTT16=
EXTT17=
PLAYORDER=
